<?xml version="1.0" standalone="no"?>
<!DOCTYPE svg PUBLIC "-//W3C//DTD SVG 20010904//EN"
 "http://www.w3.org/TR/2001/REC-SVG-20010904/DTD/svg10.dtd">
<svg version="1.0" xmlns="http://www.w3.org/2000/svg"
 width="646.000000pt" height="624.000000pt" viewBox="0 0 646.000000 624.000000"
 preserveAspectRatio="xMidYMid meet">

<g transform="translate(0.000000,624.000000) scale(0.100000,-0.100000)"
fill="#000000" stroke="none">
<path d="M3927 6107 c-10 -15 -22 -25 -26 -23 -4 3 -22 -14 -39 -38 -17 -24
-70 -76 -117 -116 -47 -40 -92 -84 -99 -98 -12 -23 -30 -30 -152 -58 -77 -18
-157 -37 -179 -42 -22 -6 -69 -15 -105 -22 -36 -6 -128 -29 -204 -51 -103 -29
-142 -36 -147 -27 -8 12 -11 12 -294 -29 -138 -19 -321 -64 -400 -97 -33 -14
-68 -26 -77 -26 -10 0 -18 -4 -18 -9 0 -16 -143 -111 -167 -111 -41 0 -493
-413 -644 -587 -168 -194 -336 -435 -466 -666 l-55 -99 25 -26 c13 -15 83
-147 155 -294 72 -148 134 -268 139 -268 20 0 121 -233 152 -352 36 -137 44
-226 36 -400 -4 -90 -8 -222 -8 -294 l-2 -132 -88 -37 c-93 -40 -147 -77 -147
-102 0 -11 -11 -14 -43 -13 -155 6 -177 -3 -177 -75 0 -74 -1 -75 -105 -75
l-93 0 -31 -55 c-17 -30 -45 -97 -63 -147 -17 -51 -40 -108 -51 -126 -16 -28
-19 -49 -17 -155 2 -81 -2 -136 -10 -164 -11 -34 -12 -54 -2 -105 9 -45 10
-73 2 -98 -14 -48 -12 -136 5 -255 15 -106 19 -241 9 -294 -5 -25 -9 -29 -20
-20 -11 9 -19 1 -38 -42 -49 -106 -106 -348 -106 -447 0 -29 3 -33 22 -30 15
2 24 13 30 35 5 18 13 33 18 33 6 0 10 23 10 50 0 55 4 58 33 33 20 -17 20
-17 13 7 -25 87 -25 93 1 172 14 43 28 76 31 74 2 -3 4 -34 4 -70 0 -59 2 -65
22 -68 16 -2 36 -33 86 -135 l65 -133 191 0 191 0 -9 62 c-9 68 -11 205 -6
404 2 105 6 136 19 150 10 11 27 40 39 66 12 26 28 52 36 59 8 6 14 16 14 21
0 23 69 68 141 92 59 20 99 26 163 26 82 0 85 -1 110 -31 14 -17 26 -35 26
-40 0 -5 -23 -58 -51 -117 -28 -59 -59 -129 -69 -157 -10 -27 -36 -89 -59
-136 -23 -48 -41 -91 -41 -96 0 -14 79 -76 132 -103 26 -13 44 -28 42 -32 -3
-4 4 -8 15 -8 19 0 21 -6 21 -62 1 -60 20 -111 36 -95 4 4 8 39 10 78 3 69 2
71 -27 87 -16 10 -27 22 -25 27 7 22 69 5 138 -39 39 -25 76 -46 83 -46 6 0
19 -10 29 -21 12 -15 20 -18 25 -10 8 12 77 -10 121 -39 53 -35 88 -39 373
-39 l282 0 -51 47 c-57 53 -152 108 -252 147 -37 14 -74 30 -82 35 -99 60
-196 115 -201 113 -13 -4 -67 65 -103 130 l-38 68 47 -6 46 -7 -40 57 c-71
101 -89 209 -49 292 16 33 60 43 84 19 8 -9 28 -16 43 -16 18 0 41 -12 65 -35
21 -19 43 -35 50 -35 6 0 17 -21 24 -46 7 -27 25 -58 42 -74 25 -23 31 -40 45
-126 9 -54 18 -100 20 -103 11 -11 12 8 3 69 -5 36 -10 97 -11 137 l-2 72 24
-22 c25 -23 21 -11 -12 34 -10 15 -17 35 -15 45 4 16 6 15 17 -8 8 -14 35 -40
62 -58 53 -34 61 -51 93 -210 8 -41 25 -122 37 -180 12 -58 24 -116 27 -130 5
-24 3 -23 -33 12 -37 35 -39 40 -36 92 1 34 -2 57 -10 62 -9 5 -11 -6 -6 -49
l5 -55 -66 68 c-56 56 -133 110 -157 110 -15 0 10 -23 58 -54 29 -18 77 -61
107 -95 93 -106 200 -211 213 -211 8 0 24 -11 37 -25 15 -16 30 -23 44 -19 12
3 41 -2 65 -11 60 -21 84 -19 149 12 72 34 148 104 163 151 14 44 39 83 39 62
0 -28 17 6 33 68 20 74 104 247 151 311 38 50 116 130 116 117 0 -4 -6 -31
-14 -59 -18 -65 -28 -147 -18 -147 4 0 18 20 31 45 33 61 89 111 175 151 80
38 179 66 184 53 2 -5 9 -6 15 -2 7 5 55 11 107 14 52 3 105 9 118 12 26 7 26
9 6 -38 -27 -66 -8 -48 24 23 18 38 32 71 32 74 0 3 -21 -5 -46 -18 -48 -25
-113 -38 -157 -32 -26 3 -24 6 40 54 37 28 93 68 124 87 54 35 256 147 263
147 2 0 -16 -44 -40 -97 -24 -53 -42 -98 -41 -100 2 -1 39 9 82 24 68 22 100
26 211 27 73 0 127 4 120 8 -15 10 -242 10 -286 -1 -19 -4 -45 -11 -57 -15
-17 -6 -23 -3 -23 9 0 27 56 128 91 163 17 18 30 35 27 37 -3 3 -58 -20 -124
-51 -118 -56 -285 -159 -398 -248 -37 -28 -70 -46 -86 -46 -67 0 -255 -79
-316 -132 -21 -18 -34 -25 -34 -17 0 24 29 112 45 135 50 77 -115 -68 -186
-163 -21 -28 -81 -138 -132 -245 -93 -189 -147 -280 -147 -245 0 10 9 59 21
109 11 51 16 94 12 95 -12 4 13 251 30 296 20 54 67 98 171 161 101 61 188
102 310 146 148 52 210 80 235 103 57 51 72 55 208 58 71 1 135 -1 142 -5 7
-5 15 -5 18 -2 3 3 14 1 24 -4 14 -8 24 -5 42 12 13 13 54 49 91 82 43 37 65
64 62 73 -3 8 -1 11 4 8 6 -3 10 -13 10 -21 0 -19 15 -18 78 6 36 14 76 20
131 20 44 0 92 5 108 11 l28 10 -31 -33 c-43 -46 -82 -102 -94 -132 -11 -31
-6 -33 133 -50 101 -13 101 -13 52 -20 -122 -19 -121 -13 -14 -98 51 -41 104
-87 117 -101 l23 -25 -22 -16 c-15 -10 -46 -16 -89 -17 -36 0 -87 -6 -115 -13
-46 -11 -48 -12 -23 -19 15 -4 40 -12 55 -18 26 -10 27 -12 8 -19 -11 -5 -49
-9 -85 -9 -36 -1 -110 -12 -165 -26 -55 -14 -106 -25 -112 -25 -7 0 -22 -9
-32 -19 -18 -18 -18 -20 -3 -24 9 -3 -2 -5 -25 -6 -36 -1 -43 -4 -43 -21 0
-11 -6 -20 -13 -20 -27 0 -262 -121 -268 -138 -5 -13 -33 -25 -101 -41 -51
-13 -141 -45 -200 -72 -59 -27 -114 -49 -122 -49 -8 0 -17 -4 -21 -9 -5 -10
50 -29 90 -32 11 -1 -2 -5 -30 -9 -59 -8 -381 -101 -457 -131 -29 -12 -69 -26
-88 -31 -19 -6 -44 -18 -55 -28 -11 -10 -40 -26 -65 -36 -25 -9 -49 -20 -54
-25 -4 -4 113 -8 261 -8 l269 -2 20 36 c10 20 26 35 36 35 19 0 25 16 8 22 -6
2 9 26 32 54 35 42 50 52 79 56 l37 3 -49 -55 c-26 -30 -46 -57 -43 -59 2 -2
35 26 73 62 55 53 75 67 100 67 32 0 41 16 19 38 -18 18 45 81 75 75 12 -2 54
7 92 20 39 14 95 32 125 41 30 9 65 25 78 36 24 20 22 40 -4 40 -51 0 49 50
181 90 22 6 54 18 72 26 17 8 35 14 40 14 20 0 63 26 63 38 0 6 7 12 15 12 12
0 13 -4 3 -25 -8 -19 -8 -28 2 -40 12 -14 -6 -36 -141 -171 -85 -85 -184 -180
-221 -211 -38 -32 -68 -61 -68 -67 0 -5 -12 -22 -27 -38 -14 -15 -23 -31 -19
-35 4 -5 45 30 90 77 235 243 495 490 510 484 9 -3 16 -1 16 5 0 6 11 11 25
11 14 0 25 -3 25 -6 0 -26 -180 -220 -280 -302 -36 -29 -100 -88 -144 -130
-43 -42 -85 -77 -93 -77 -9 0 -33 -28 -54 -63 l-38 -62 285 2 286 3 19 55 c11
30 31 93 45 140 43 144 122 292 215 400 45 52 96 118 114 145 18 28 49 65 68
83 l34 33 84 -21 c162 -41 294 -82 310 -96 9 -8 18 -11 22 -8 12 13 112 -31
225 -98 141 -85 246 -167 268 -211 9 -18 25 -42 36 -53 11 -12 20 -28 22 -35
4 -24 24 -56 68 -106 23 -26 64 -82 91 -123 61 -94 75 -110 99 -110 31 0 21
32 -44 141 -63 104 -99 154 -269 369 -108 136 -122 145 -369 231 -291 101
-473 170 -481 182 -4 6 -14 5 -24 -1 -23 -12 -70 0 -145 38 -30 15 -66 28 -80
28 -28 0 -135 45 -144 61 -7 10 53 31 89 31 29 0 52 17 40 29 -15 14 -156 51
-196 51 -47 0 -65 13 -44 30 19 16 135 188 135 200 0 20 -22 20 -53 2 -30 -19
-129 -52 -151 -52 -6 0 2 12 17 25 30 27 57 91 57 137 0 22 13 42 53 82 29 29
61 65 70 80 l17 26 154 -3 153 -2 56 38 c55 36 117 107 117 133 0 7 5 14 12
16 13 5 36 95 43 174 3 31 0 66 -9 92 -11 30 -12 50 -5 74 15 54 10 91 -16
130 -14 20 -25 45 -25 55 0 28 24 88 84 215 83 178 113 300 127 523 5 83 13
175 17 205 l8 55 9 -60 c6 -33 9 -111 8 -172 -1 -62 3 -113 7 -113 11 0 15 16
31 100 6 36 19 76 27 90 13 20 16 56 17 177 0 84 2 153 4 153 2 0 31 -29 63
-65 33 -36 97 -92 142 -125 81 -58 82 -60 94 -118 19 -92 16 -117 -19 -157
-18 -20 -45 -43 -60 -51 -40 -20 -38 -38 4 -28 17 4 59 7 93 6 56 0 63 2 101
36 22 20 42 44 45 52 4 12 8 13 19 3 22 -21 32 -15 24 15 -4 15 -7 40 -6 57 1
18 -5 35 -17 45 -22 18 -82 226 -107 370 -9 52 -32 157 -51 232 -19 75 -34
139 -34 142 0 2 12 1 28 -3 30 -8 116 -108 158 -184 16 -30 28 -71 31 -108 3
-32 7 -59 8 -59 2 0 34 32 72 70 71 74 106 133 97 163 -4 13 1 17 20 17 39 0
32 15 -31 62 -79 58 -251 226 -331 323 -36 44 -79 93 -95 108 -24 23 -27 30
-17 42 10 12 40 15 136 15 70 0 124 4 124 9 0 5 -8 12 -17 15 -10 3 -60 17
-112 31 -93 26 -188 68 -226 102 -37 32 -108 124 -232 303 -84 121 -149 202
-208 259 -54 53 -82 88 -76 94 6 6 20 4 38 -6 61 -33 224 -53 223 -28 -1 3
-60 44 -131 90 -72 46 -133 90 -136 97 -3 8 -9 12 -13 9 -4 -3 -13 8 -19 23
-13 31 -220 185 -328 244 -91 50 -155 68 -274 75 -111 7 -112 8 -79 74 23 45
86 94 133 105 57 12 108 44 102 64 -3 11 0 20 10 24 8 3 15 10 15 16 0 20 -38
10 -96 -25 -32 -19 -70 -35 -85 -35 -14 0 -55 -9 -89 -20 -49 -16 -91 -20
-194 -20 -103 0 -143 -5 -190 -20 -33 -11 -61 -20 -62 -20 -2 0 -5 55 -6 122
-3 121 -3 122 -21 95z m-107 -170 c0 -2 -10 -12 -22 -23 l-23 -19 19 23 c18
21 26 27 26 19z m-36 -172 c-18 -13 -16 -14 21 -15 57 0 220 -54 210 -70 -2
-4 6 -12 20 -18 13 -6 32 -18 42 -26 10 -9 27 -22 38 -30 19 -14 19 -15 2 -16
-36 0 -10 -24 39 -35 27 -6 58 -16 69 -22 11 -6 41 -19 68 -28 128 -45 338
-244 405 -385 20 -41 37 -81 38 -88 1 -8 10 -22 19 -32 9 -10 14 -24 10 -30
-3 -6 -1 -9 6 -8 7 2 14 -6 15 -17 2 -29 39 -109 95 -201 132 -221 316 -671
307 -755 -3 -28 -15 -39 -133 -112 -71 -44 -168 -104 -215 -133 -80 -50 -85
-52 -112 -38 -15 8 -35 22 -45 32 -10 10 -45 28 -78 41 -33 13 -65 29 -72 35
-11 11 -29 186 -54 531 -11 153 -26 234 -36 192 -3 -10 0 -63 6 -118 6 -55 11
-184 11 -288 0 -141 4 -200 16 -240 14 -49 14 -54 -2 -65 -15 -12 -15 -13 0
-19 10 -4 16 -18 17 -39 0 -27 2 -29 9 -13 7 18 8 19 15 3 4 -10 11 -15 16
-12 5 3 51 -15 102 -40 l94 -45 6 -78 c6 -82 66 -526 92 -678 8 -49 16 -109
17 -132 4 -45 3 -45 -47 -2 -39 34 -115 52 -225 53 -102 1 -107 0 -179 -36
-70 -35 -91 -39 -91 -17 0 5 -16 43 -35 84 -19 41 -46 101 -59 133 -14 33 -34
75 -44 93 -11 19 -47 85 -81 146 -64 116 -75 130 -86 114 -3 -5 17 -45 45 -88
28 -42 70 -116 92 -163 22 -47 58 -121 79 -165 21 -44 47 -106 59 -137 12 -32
26 -58 31 -58 5 0 2 -11 -7 -25 -29 -44 -4 -42 32 3 20 23 44 42 54 42 9 0 23
7 30 14 19 24 109 50 134 39 11 -6 35 -9 51 -7 35 4 126 -20 164 -43 68 -43
124 -112 146 -182 6 -20 4 -23 -10 -17 -45 17 -164 35 -195 30 -80 -15 -165
-85 -211 -175 -30 -59 -61 -169 -47 -169 7 0 8 -17 4 -50 -6 -48 9 -139 21
-126 4 3 7 59 8 123 1 105 4 126 29 184 31 75 79 137 131 169 53 33 112 29
255 -17 183 -59 200 -67 200 -97 0 -19 5 -26 19 -26 12 0 22 -9 26 -22 4 -13
19 -40 33 -61 l26 -39 -16 -61 c-13 -52 -14 -65 -2 -93 19 -46 18 -69 -11
-154 -13 -41 -25 -82 -25 -92 0 -9 -21 -38 -46 -65 -26 -26 -40 -39 -32 -28 9
11 28 52 44 90 27 64 29 79 26 175 -1 58 -7 129 -13 157 -9 47 -13 53 -35 53
-13 0 -24 -4 -24 -10 0 -5 6 -10 14 -10 24 0 27 -15 36 -138 7 -104 6 -124
-12 -178 l-20 -62 -70 -28 c-108 -43 -149 -34 -118 26 25 50 25 50 -8 50 -16
0 -36 6 -46 13 -16 12 -15 16 9 69 25 54 25 59 11 87 -20 37 -20 68 -1 101 17
30 19 44 5 35 -13 -8 -3 38 16 76 12 24 56 67 120 117 l29 23 -44 -23 c-73
-39 -111 -78 -131 -138 -13 -38 -15 -57 -8 -62 8 -4 6 -14 -5 -32 -21 -32 -22
-70 -2 -100 15 -22 14 -28 -9 -81 -30 -66 -23 -92 25 -102 34 -6 34 -6 13 -39
-12 -17 -22 -23 -35 -19 -24 8 -25 -11 -1 -24 9 -6 13 -11 7 -11 -5 -1 -1 -5
10 -10 15 -6 7 -9 -32 -11 -29 -1 -59 -2 -65 -3 -7 -1 -29 2 -48 7 -19 5 -51
12 -70 15 -46 9 -92 77 -116 172 -10 38 -22 70 -26 70 -23 0 5 -134 39 -187 8
-12 13 -34 11 -49 -3 -24 -10 -30 -48 -39 -56 -14 -85 -32 -101 -62 l-13 -23
-29 27 c-37 36 -109 153 -138 223 -12 30 -23 80 -25 110 -16 294 -16 297 0
380 20 96 52 186 75 209 9 9 15 28 13 44 -3 23 -6 26 -18 16 -12 -10 -13 -9
-8 4 5 15 -19 77 -107 265 -22 46 -39 91 -39 100 0 23 -58 147 -97 208 -18 28
-52 66 -75 85 -24 19 -84 72 -134 119 -50 47 -104 96 -122 109 -17 14 -29 28
-26 32 4 7 -88 69 -102 69 -3 0 -25 16 -49 36 -39 31 -44 33 -53 18 -9 -15
-14 -16 -43 -4 -103 39 -341 152 -334 158 1 2 20 -4 40 -12 40 -17 75 -21 75
-8 0 13 -112 52 -185 65 -78 13 -146 14 -347 3 -104 -6 -138 -11 -138 -21 0
-7 6 -16 13 -18 11 -5 -24 -9 -118 -12 -67 -3 -135 -24 -240 -75 -55 -26 -119
-53 -141 -59 -42 -11 -173 -7 -185 7 -4 4 -41 89 -83 189 -41 100 -80 192 -87
205 -37 72 -92 159 -96 154 -3 -3 17 -49 45 -103 73 -143 194 -433 188 -449
-8 -22 -69 -17 -89 6 -11 13 -30 21 -50 21 -17 0 -85 3 -151 7 -106 6 -150 2
-135 -12 2 -3 46 -6 97 -7 130 -4 136 -21 12 -35 -33 -4 -63 -11 -66 -15 -3
-5 -17 -9 -32 -9 -33 0 -81 -31 -178 -113 l-33 -28 9 32 c10 33 63 86 118 116
17 9 32 24 32 31 0 15 -49 -11 -112 -60 l-37 -28 -10 37 c-6 21 -11 52 -11 70
0 17 -4 33 -8 35 -4 2 -27 50 -51 108 -40 96 -43 109 -38 170 6 77 39 177 64
196 32 24 257 132 312 150 54 17 55 17 69 -5 22 -32 35 -25 17 9 l-15 29 66
21 c36 11 77 20 89 20 13 0 27 5 30 10 12 19 -63 8 -162 -24 -23 -7 -23 -6
-24 81 -1 106 -17 86 -18 -23 -1 -78 -2 -80 -86 -105 -22 -6 -86 -36 -143 -66
-57 -30 -106 -52 -109 -49 -18 18 102 217 222 370 23 28 72 92 110 141 86 113
208 246 291 320 l64 57 -84 -116 c-91 -125 -191 -284 -183 -292 3 -3 35 41 72
97 192 294 383 504 508 559 57 25 150 49 218 56 137 13 488 26 719 27 261 0
397 -14 426 -45 26 -29 184 -379 184 -410 1 -18 38 -128 48 -142 5 -6 16 -32
26 -58 15 -41 20 -46 36 -38 14 7 72 -18 273 -120 140 -72 263 -130 272 -130
10 0 35 -10 56 -22 21 -12 42 -18 46 -13 5 4 3 9 -2 11 -6 2 -69 36 -140 75
-150 82 -445 229 -461 229 -6 0 -9 10 -7 23 7 36 -47 185 -82 227 -7 8 -34 63
-60 123 -26 59 -51 107 -56 107 -5 0 -26 36 -46 80 -26 57 -42 80 -55 80 -10
0 -18 3 -18 8 0 8 -75 30 -130 38 -19 3 -51 8 -70 11 l-35 7 50 7 c83 12 241
9 400 -6 239 -24 283 -27 258 -16 -12 6 -125 22 -251 36 -231 25 -422 32 -422
13 0 -5 -10 -9 -22 -8 -35 3 -50 1 -45 -7 3 -5 -71 -8 -163 -8 -93 0 -168 1
-167 1 1 1 63 20 137 43 74 22 203 52 285 66 83 14 161 31 175 37 36 16 146
36 209 37 50 1 53 0 35 -14z m646 -39 c0 -9 -40 -13 -46 -5 -3 5 6 9 20 9 14
0 26 -2 26 -4z m159 -25 c9 -6 -9 -7 -50 -4 -35 3 -66 7 -68 9 -10 9 105 3
118 -5z m141 -121 c25 -12 86 -47 136 -76 50 -29 112 -63 138 -74 55 -23 54
-43 -1 -28 -40 11 -373 198 -373 210 0 10 48 -6 100 -32z m-1900 20 c-14 -4
-36 -8 -50 -8 -23 -1 -23 0 -5 8 11 5 34 8 50 8 29 0 29 0 5 -8z m2105 -61
c41 -28 80 -58 87 -67 7 -8 -27 13 -77 48 -107 75 -100 70 -91 70 4 0 41 -23
81 -51z m130 -99 c10 -11 16 -20 13 -20 -3 0 -13 9 -23 20 -10 11 -16 20 -13
20 3 0 13 -9 23 -20z m-3125 -135 c-19 -19 -43 -35 -54 -35 -16 0 -8 9 28 35
27 19 52 35 55 35 3 0 -10 -16 -29 -35z m3333 -290 l22 -30 -42 33 c-23 20
-43 45 -46 60 l-5 27 24 -30 c14 -16 35 -43 47 -60z m-29 -30 c153 -208 258
-367 248 -377 -7 -7 -28 13 -64 63 -96 130 -268 387 -268 399 0 20 27 -7 84
-85z m99 -67 c57 -82 61 -89 45 -83 -12 5 -102 145 -93 145 2 0 24 -28 48 -62z
m-532 5 c13 -16 12 -17 -3 -4 -17 13 -22 21 -14 21 2 0 10 -8 17 -17z m-977
-33 c-6 -5 -24 21 -24 34 0 6 6 1 14 -10 8 -10 12 -21 10 -24z m2003 -436 c-3
-3 -12 -4 -19 -1 -8 3 -5 6 6 6 11 1 17 -2 13 -5z m-509 -219 c-3 -3 -9 2 -12
12 -6 14 -5 15 5 6 7 -7 10 -15 7 -18z m52 -136 c0 -6 -4 -7 -10 -4 -5 3 -10
11 -10 16 0 6 5 7 10 4 6 -3 10 -11 10 -16z m-161 -200 c9 -1 19 -1 24 0 22 3
-7 -19 -135 -103 -202 -131 -356 -213 -333 -176 3 6 2 10 -4 10 -5 0 -9 9 -8
19 1 12 6 17 16 13 10 -4 13 -1 9 9 -4 11 16 28 66 58 39 23 130 80 201 127
121 78 131 83 139 64 5 -11 16 -21 25 -21z m-2451 -4 c-12 -27 -32 -28 -123
-2 l-40 12 70 6 c39 3 78 6 87 7 15 2 16 -1 6 -23z m2502 -60 c-9 -11 -9 -22
1 -50 7 -19 17 -35 22 -35 11 0 3 -130 -15 -250 -12 -81 -15 -288 -7 -490 4
-86 1 -103 -25 -174 -23 -61 -36 -82 -58 -95 -51 -28 -56 -35 -62 -84 -5 -51
-13 -70 -25 -62 -5 2 -17 -2 -27 -10 -10 -8 -13 -15 -7 -15 9 0 10 -7 3 -26
-13 -33 -13 -37 4 -31 14 6 44 -38 33 -49 -8 -8 -28 6 -22 16 5 9 -46 31 -112
49 -40 11 -42 13 -53 66 -6 29 -21 66 -32 81 -18 22 -22 43 -24 119 -2 51 -12
137 -23 191 -19 92 -52 345 -65 494 l-6 65 156 95 c86 52 197 121 247 152 94
58 119 69 97 43z m-4250 -289 c0 -12 -5 -7 -19 24 -11 24 -11 24 3 6 9 -11 16
-24 16 -30z m113 -56 c-5 -19 -23 -29 -23 -12 0 7 20 32 26 32 1 0 0 -9 -3
-20z m4522 -20 c10 -11 16 -20 13 -20 -3 0 -13 9 -23 20 -10 11 -16 20 -13 20
3 0 13 -9 23 -20z m-2934 -558 c-17 -445 -26 -606 -46 -844 -3 -32 1 -41 25
-58 33 -24 77 -26 116 -5 16 8 36 15 44 15 29 1 58 36 78 95 26 79 154 587
187 745 22 107 64 370 65 407 0 13 118 -49 175 -93 l37 -28 -6 -75 c-19 -213
-49 -393 -98 -581 -17 -63 -33 -132 -35 -152 -4 -32 -2 -38 18 -43 13 -3 44
-4 68 -2 57 6 65 17 126 184 26 73 56 140 66 149 13 11 17 24 13 41 -5 19 68
306 82 322 2 2 10 -2 19 -9 8 -7 21 -10 30 -6 18 7 65 -35 65 -58 0 -23 59
-95 91 -112 24 -12 30 -11 52 7 16 12 27 32 29 52 2 21 9 33 21 35 27 5 21
-16 -32 -124 -37 -77 -65 -117 -126 -182 -43 -45 -80 -80 -83 -78 -2 3 -18 -4
-33 -15 -21 -14 -29 -29 -29 -49 0 -16 -5 -32 -10 -35 -6 -4 -8 -11 -4 -16 8
-14 -21 -134 -57 -233 -16 -46 -50 -114 -75 -150 -24 -37 -44 -70 -44 -75 0
-5 -24 -19 -54 -31 -57 -23 -66 -38 -66 -114 0 -46 -8 -52 -83 -65 -38 -7
-103 -25 -144 -42 -42 -17 -79 -26 -82 -21 -11 16 -135 70 -176 77 -28 4 -50
1 -70 -9 -17 -9 -36 -16 -43 -16 -7 0 -43 -15 -80 -34 -71 -36 -84 -34 -90 13
-10 69 -106 221 -200 317 l-30 30 9 175 c5 95 15 239 24 319 20 201 43 465 50
590 3 58 8 122 11 142 l6 37 141 3 142 3 9 -48 c6 -30 5 -165 -3 -355z m-854
278 c46 -175 71 -388 78 -680 2 -80 7 -166 10 -193 l7 -47 -54 21 c-29 12 -61
24 -70 26 -12 4 -18 15 -18 37 0 72 -54 479 -75 571 -8 33 -24 122 -36 199
-18 115 -19 140 -8 147 8 4 43 7 79 5 l65 -3 22 -83z m-377 -2 c0 -4 6 -5 14
-2 24 9 20 28 101 -451 47 -281 61 -385 51 -385 -4 0 -11 10 -16 23 -9 22 -9
21 -9 -4 -1 -25 -5 -27 -78 -40 -43 -7 -85 -14 -93 -14 -16 0 -39 99 -39 170
0 40 0 40 25 -26 28 -73 61 -101 85 -73 18 22 4 188 -36 432 -18 114 -37 245
-41 292 -6 83 -6 86 15 86 11 0 21 -4 21 -8z m2610 -299 c0 -43 -166 -277
-268 -377 -60 -58 -66 -62 -85 -49 -12 8 -22 18 -24 23 -2 6 41 51 95 101 55
51 104 104 110 120 6 15 24 66 41 113 23 61 41 93 64 112 l32 26 17 -26 c10
-15 18 -34 18 -43z m-2716 -151 c8 -39 10 -68 4 -68 -5 0 -7 -34 -5 -80 4 -65
2 -80 -9 -80 -8 0 -19 12 -24 26 -14 35 -12 214 2 255 13 38 13 39 32 -53z
m2751 51 c4 -19 12 -29 20 -25 8 3 21 -14 35 -47 l22 -51 -40 -120 c-68 -204
-74 -295 -36 -514 22 -130 57 -196 153 -289 l81 -78 -23 -55 c-23 -57 -71
-100 -110 -100 -12 0 -41 10 -65 21 -39 20 -55 21 -155 16 -115 -5 -288 -43
-310 -67 -10 -10 -7 -11 13 -6 99 27 209 46 290 51 l95 5 -85 -19 c-47 -11
-109 -20 -137 -21 -49 0 -57 -4 -105 -48 -38 -34 -70 -53 -115 -66 l-61 -19
-69 40 -68 39 -3 210 -2 210 32 16 c55 26 160 126 210 200 47 68 71 134 98
263 7 33 13 70 14 82 0 12 15 37 32 55 46 49 202 246 238 300 17 26 34 48 38
48 3 0 9 -14 13 -31z m-2718 -251 c-3 -8 -6 -5 -6 6 -1 11 2 17 5 13 3 -3 4
-12 1 -19z m-17 -72 c0 -19 -4 -23 -20 -19 -38 10 -37 43 1 43 13 0 19 -7 19
-24z m-60 0 c0 -20 59 -84 61 -66 1 8 5 -1 8 -20 4 -19 11 -44 14 -56 7 -18 1
-22 -54 -38 -34 -9 -63 -15 -65 -14 -5 6 -4 102 2 156 4 35 10 52 20 52 8 0
14 -6 14 -14z m2436 -106 c-6 -63 -41 -171 -79 -245 -46 -93 -130 -170 -231
-214 -5 -2 2 11 15 29 13 18 34 36 46 40 11 5 32 24 46 42 52 69 127 282 127
361 0 21 5 47 10 57 10 18 12 18 41 2 30 -17 31 -19 25 -72z m-1981 -52 c71
-15 230 -88 354 -160 209 -123 391 -345 391 -477 0 -76 -27 -197 -61 -270 -20
-43 -53 -88 -106 -142 -42 -44 -80 -79 -85 -79 -4 0 -28 -15 -52 -34 -25 -18
-82 -48 -128 -65 -67 -26 -91 -41 -125 -79 l-41 -47 -10 25 c-15 39 -128 156
-196 204 -64 46 -124 78 -166 91 -40 12 -13 -10 64 -49 116 -60 226 -156 275
-238 l23 -38 -27 -10 c-14 -5 -36 -10 -48 -10 l-21 0 22 16 c12 8 22 23 22 32
0 24 -93 118 -161 162 -107 69 -315 120 -423 104 -50 -8 -48 -8 46 -15 197
-15 350 -75 464 -181 l66 -62 -28 -23 c-16 -13 -36 -29 -44 -36 -9 -7 -43 -12
-85 -11 -56 1 -88 8 -160 37 -142 57 -205 91 -218 117 -7 14 -34 39 -60 55
-25 17 -47 35 -47 41 0 5 -7 19 -16 30 -15 18 -15 18 -11 -4 4 -19 3 -21 -8
-12 -7 6 -17 30 -20 53 -4 23 -16 56 -26 73 -10 17 -16 34 -12 37 3 4 1 7 -5
7 -17 0 -59 89 -76 161 -35 157 -51 459 -23 459 9 0 8 3 -2 9 -24 15 -5 100
31 133 17 15 34 28 40 28 5 0 32 10 59 21 51 22 66 40 27 33 -51 -10 134 58
222 82 193 53 266 59 385 32z m2342 -40 c-3 -8 -6 -5 -6 6 -1 11 2 17 5 13 3
-3 4 -12 1 -19z m-3227 -247 c0 -5 -9 -13 -20 -16 -11 -4 -27 -20 -36 -37 -18
-35 -29 -32 -15 5 14 35 71 74 71 48z m90 -138 l0 -87 -45 44 c-25 24 -45 50
-45 56 0 7 -5 14 -11 16 -19 6 7 46 33 51 70 13 68 15 68 -80z m-233 -3 c-31
-9 -168 -23 -152 -15 13 6 122 22 155 23 24 0 24 0 -3 -8z m2663 -14 c0 -3 -7
-83 -15 -178 -20 -215 -18 -200 -17 -221 4 -37 22 -4 23 41 l1 47 9 -40 c14
-68 13 -70 -42 -84 -33 -9 -54 -10 -61 -3 -12 12 18 270 34 289 7 9 7 13 -1
13 -8 0 -10 11 -5 34 3 19 6 51 7 70 1 34 3 36 34 36 18 0 33 -2 33 -4z m-535
-191 c39 -16 81 -37 94 -47 26 -19 56 -24 65 -9 4 5 25 12 49 16 42 7 169 39
198 50 13 5 13 -5 3 -87 -7 -51 -13 -103 -13 -115 -1 -16 -5 -21 -17 -16 -8 3
-25 -4 -38 -16 -30 -28 -173 -88 -258 -107 l-68 -16 -80 31 c-74 29 -86 31
-167 25 -49 -3 -103 -10 -120 -14 l-33 -8 25 42 c26 44 33 92 15 98 -16 5 10
108 27 108 7 0 13 -7 13 -16 0 -9 3 -14 8 -12 50 23 136 73 172 101 25 19 47
32 50 28 3 -4 37 -20 75 -36z m-2116 10 c-19 -7 -54 -22 -77 -34 -23 -11 -45
-21 -49 -20 -14 1 131 69 147 68 8 0 -1 -6 -21 -14z m3396 -175 c17 -7 16 -9
-10 -9 -16 0 -37 4 -45 9 -12 8 -10 10 10 9 14 0 34 -4 45 -9z m-3180 -76 c25
-14 49 -23 54 -19 6 3 19 -12 31 -35 l20 -40 -79 0 c-85 0 -86 1 -114 63 -17
37 -17 38 6 47 32 13 34 12 82 -16z m2517 -72 c-10 -3 -92 34 -92 43 0 2 23
-6 52 -18 28 -11 46 -23 40 -25z m816 14 c15 -8 35 -23 46 -34 18 -21 18 -21
-19 -36 -54 -23 -63 -21 -107 25 -31 32 -37 43 -27 50 21 13 77 11 107 -5z
m-1527 -33 l54 -18 -70 -9 c-83 -10 -226 -9 -238 3 -4 4 18 13 50 20 32 7 63
15 68 16 28 9 88 3 136 -12z m-1603 -237 c28 -27 72 -63 99 -82 26 -18 53 -38
60 -44 7 -5 18 -10 25 -11 7 0 -34 -10 -92 -21 -58 -10 -117 -22 -131 -25
l-25 -5 -2 89 c-2 48 -5 102 -8 120 -8 44 12 39 74 -21z m396 -191 l31 -13
-30 3 c-70 7 -107 18 -93 26 14 10 45 5 92 -16z m201 -34 c-3 -6 -14 -10 -23
-10 -15 1 -15 2 1 6 9 2 17 9 17 15 0 6 3 9 6 5 3 -3 3 -10 -1 -16z m-118 -96
c-12 -47 -25 -85 -30 -85 -10 0 -3 38 21 122 25 88 32 59 9 -37z m100 15 c-15
-56 3 -118 59 -197 24 -36 41 -62 37 -60 -37 21 -185 87 -196 87 -16 0 -10 50
18 147 14 47 18 52 48 56 17 2 35 5 38 5 3 1 1 -16 -4 -38z m2631 -171 c-2 -6
-8 -10 -13 -10 -5 0 -11 4 -13 10 -2 6 4 11 13 11 9 0 15 -5 13 -11z m-2633
-93 c33 -28 63 -66 78 -98 28 -58 122 -157 130 -136 13 35 77 -101 77 -163 0
-22 10 -51 25 -74 15 -20 25 -39 23 -40 -2 -2 -55 14 -118 35 -63 22 -126 39
-140 40 -14 0 -41 5 -61 10 l-36 10 -37 148 c-21 81 -48 185 -59 231 -17 64
-19 85 -9 89 6 2 12 10 12 18 0 18 44 -8 115 -70z m-1365 -61 c0 -8 -4 -15
-10 -15 -5 0 -7 7 -4 15 4 8 8 15 10 15 2 0 4 -7 4 -15z m532 -85 c-9 -52 -10
-53 -11 -15 -1 52 12 131 17 95 1 -14 -1 -50 -6 -80z m-393 26 c15 -8 51 -18
79 -22 59 -8 70 -24 17 -24 -31 0 -135 42 -135 55 0 8 9 6 39 -9z m101 -76
c23 0 25 -4 25 -42 1 -24 4 -64 9 -90 5 -27 4 -48 -1 -48 -4 0 -33 39 -63 88
-30 48 -61 97 -68 110 l-14 22 43 -20 c24 -11 55 -20 69 -20z m2937 -38 c-12
-13 -27 -17 -57 -14 -50 5 -48 10 10 17 24 3 46 7 48 10 14 14 13 3 -1 -13z"/>
<path d="M3463 5453 c12 -41 202 -481 206 -478 2 3 -6 32 -18 65 -12 33 -19
65 -16 70 9 15 -46 131 -58 123 -5 -3 -7 -1 -3 5 3 6 -14 52 -39 103 -25 51
-45 98 -45 105 0 6 -7 15 -16 18 -12 5 -15 2 -11 -11z m161 -323 c3 -14 -3 -7
-13 15 -11 22 -20 45 -20 50 0 15 26 -37 33 -65z"/>
<path d="M3747 4814 c-38 -20 -24 -38 14 -19 16 9 27 20 24 25 -7 12 -4 13
-38 -6z"/>
<path d="M3570 4750 c-82 -26 -324 -177 -501 -311 -42 -32 -78 -56 -81 -54
-18 18 -446 123 -630 155 -111 18 -312 29 -324 17 -3 -3 30 -8 73 -12 95 -8
282 -37 418 -65 128 -26 436 -112 433 -121 -2 -4 -59 -58 -128 -121 -119 -108
-266 -275 -254 -287 3 -3 15 8 26 24 27 39 302 313 350 349 l37 28 68 -22
c177 -59 439 -183 558 -265 86 -59 86 -59 78 -39 -17 45 -365 234 -573 313
l-103 38 79 60 c168 127 388 262 479 293 30 10 63 23 72 29 17 10 16 10 -2 10
-11 -1 -45 -9 -75 -19z"/>
<path d="M3920 4722 c0 -4 37 -20 83 -36 45 -16 134 -54 197 -84 136 -66 141
-68 115 -47 -61 50 -395 191 -395 167z"/>
<path d="M3910 3876 c0 -9 13 -22 29 -30 67 -35 240 -255 311 -395 34 -68 78
-193 120 -338 28 -95 50 -147 50 -118 0 44 -102 367 -140 446 -65 135 -202
318 -297 396 -64 52 -73 57 -73 39z"/>
<path d="M3260 3869 c0 -5 17 -17 38 -26 102 -42 284 -140 375 -203 92 -62
133 -96 300 -240 26 -23 47 -38 47 -33 0 13 -192 187 -282 256 -94 71 -227
151 -352 210 -101 48 -126 55 -126 36z"/>
<path d="M4476 3692 c5 -5 49 -24 97 -43 64 -25 89 -39 92 -54 2 -11 11 -85
20 -165 28 -262 39 -345 43 -327 4 21 -24 318 -41 441 l-12 79 -85 38 c-78 35
-138 51 -114 31z"/>
<path d="M4732 3050 c0 -14 2 -19 5 -12 2 6 2 18 0 25 -3 6 -5 1 -5 -13z"/>
<path d="M4972 2278 c-14 -18 -30 -80 -42 -169 -11 -81 0 -130 36 -160 16 -13
17 -12 10 6 -38 96 -27 272 20 320 13 13 13 15 1 15 -8 0 -19 -6 -25 -12z"/>
<path d="M4111 2643 c-23 -28 -34 -34 -42 -26 -12 12 -39 6 -51 -11 -12 -17
-9 -24 12 -31 26 -8 19 -21 -55 -102 -31 -35 -54 -66 -51 -71 5 -9 -45 -196
-74 -275 -27 -73 -92 -158 -172 -227 -103 -90 -108 -97 -108 -154 0 -28 -5
-90 -10 -139 l-10 -87 61 -58 c33 -31 66 -58 72 -60 7 -2 -16 24 -51 58 l-63
61 10 87 c6 48 11 112 11 142 0 51 2 57 30 74 17 9 68 55 114 101 103 103 132
161 183 358 l36 142 62 64 c55 55 65 62 83 52 19 -10 20 -9 9 18 -9 25 -7 33
16 61 23 27 36 60 23 60 -3 0 -18 -17 -35 -37z"/>
<path d="M1519 2274 c-129 -23 -459 -156 -459 -184 0 -15 5 -13 57 19 56 34
112 57 278 113 109 37 130 41 225 42 95 1 114 -2 200 -33 188 -67 305 -132
432 -240 76 -64 185 -183 219 -238 21 -35 33 -27 12 8 -69 118 -264 299 -405
376 -166 90 -350 154 -443 152 -22 0 -74 -7 -116 -15z"/>
<path d="M1316 1291 c39 -5 95 -14 124 -20 29 -6 55 -9 57 -7 11 11 -79 28
-162 31 l-90 4 71 -8z"/>
<path d="M1680 547 c0 -1 11 -57 25 -125 17 -83 36 -144 59 -190 41 -78 46
-71 12 19 -13 35 -36 117 -50 182 -15 64 -32 117 -37 117 -5 0 -9 -1 -9 -3z"/>
<path d="M1900 336 c0 -9 5 -16 10 -16 6 0 10 4 10 9 0 6 -4 13 -10 16 -5 3
-10 -1 -10 -9z"/>
<path d="M1910 280 c0 -5 5 -10 11 -10 5 0 7 5 4 10 -3 6 -8 10 -11 10 -2 0
-4 -4 -4 -10z"/>
<path d="M2010 141 c0 -5 5 -13 10 -16 6 -3 10 -2 10 4 0 5 -4 13 -10 16 -5 3
-10 2 -10 -4z"/>
<path d="M5650 4800 c0 -5 5 -10 11 -10 5 0 7 5 4 10 -3 6 -8 10 -11 10 -2 0
-4 -4 -4 -10z"/>
<path d="M3129 713 c-13 -16 -12 -17 4 -4 16 13 21 21 13 21 -2 0 -10 -8 -17
-17z"/>
<path d="M3015 618 c-12 -22 -19 -55 -21 -107 l-3 -76 10 65 c6 36 17 83 25
104 17 50 13 55 -11 14z"/>
<path d="M2280 624 c0 -30 43 -199 47 -187 3 7 -5 56 -17 108 -21 90 -30 115
-30 79z"/>
<path d="M5525 507 c-97 -51 -191 -115 -225 -152 -14 -16 3 -7 40 22 62 47
158 107 245 152 22 11 36 20 30 20 -5 0 -46 -19 -90 -42z"/>
<path d="M1100 332 c0 -12 18 -19 75 -26 l40 -6 -31 14 c-47 22 -84 30 -84 18z"/>
<path d="M1273 199 c3 -23 11 -47 18 -53 9 -8 10 -5 5 14 -3 14 -6 37 -6 53 0
15 -5 27 -11 27 -8 0 -10 -14 -6 -41z"/>
<path d="M5102 178 c-41 -54 -66 -98 -60 -102 2 -1 26 33 55 76 60 89 62 103
5 26z"/>
<path d="M1316 192 c-9 -15 2 -52 15 -52 11 0 11 17 0 44 -5 14 -10 16 -15 8z"/>
</g>
</svg>
